<svg id="图层_1" data-name="图层 1" xmlns="http://www.w3.org/2000/svg" viewBox="0 0 189.69 189.7"><defs><style>.cls-1{fill:none;stroke:#10ddf5;stroke-miterlimit:10;stroke-width:5px;}</style></defs><title>7</title><path class="cls-1" d="M3801.52,3495.34l0-.63c0-.21,0-.41,0-.62s0-.41,0-.62,0-.4-.06-.59,0-.47-.08-.7l0-.34-.08-.57c0-.27-.08-.53-.13-.8l-.1-.57h0c0-.11,0-.24-.07-.36-.07-.34-.15-.68-.23-1l0-.15c-.08-.34-.17-.67-.27-1s-.12-.43-.19-.64-.18-.59-.28-.87l0-.08-.21-.59-.17-.48,0-.11,0-.06c-.12-.29-.24-.59-.36-.89l-.13-.29c-.16-.38-.34-.76-.52-1.13v0c-.17-.38-.37-.76-.57-1.13s-.41-.75-.62-1.11-.43-.73-.66-1.08a6.24,6.24,0,0,0-.35-.53,5.79,5.79,0,0,0-.36-.52c-.23-.35-.48-.69-.74-1a32.14,32.14,0,0,0-50.68-.82c-.22.27-.43.54-.64.82s-.34.49-.51.73-.37.51-.54.78-.39.58-.57.88-.51.83-.75,1.26c-.07.12-.15.24-.22.36q-.38.7-.73,1.43c-.16.34-.31.68-.47,1-.06.13-.11.27-.17.41l-.36.89a.08.08,0,0,1,0,.06l0,.11-.17.48-.21.59c-.06.2-.13.41-.2.62l-.19.62c-.25.83-.46,1.67-.64,2.53l-.13.64c-.06.29-.1.57-.15.85s0,.31-.07.46-.08.57-.12.87-.08.74-.11,1.12c0,.2,0,.41,0,.62s0,.41,0,.62l0,.63c0,.27,0,.54,0,.81v.1c0,.26,0,.5,0,.76s0,.41,0,.62,0,.42,0,.62,0,.41,0,.62c.06.67.13,1.34.23,2,0,.15,0,.31.07.46s.09.57.15.85.08.43.13.64.14.66.22,1,.15.62.24.92.24.83.37,1.24c.08.24.15.47.24.7l.08.24,0,.13c.09.26.19.5.28.75s.24.61.37.91l0,.06c.07.16.13.31.21.47l0,0c.13.29.26.57.39.85v0c.15.31.31.63.48.93l.1.2h0c.2.38.41.75.62,1.11s.44.73.66,1.08l.15.22.45.68.1.16.23.31c.17.24.33.48.51.71a32.15,32.15,0,0,0,51.31,0h0c.26-.34.5-.68.74-1l.69-1,0,0c.22-.36.45-.72.66-1.08s.42-.73.62-1.11.39-.75.57-1.14v0c.14-.29.28-.59.41-.89l.06-.15a2.81,2.81,0,0,0,.15-.33l0-.06c.13-.3.25-.6.37-.91s.19-.5.28-.75l0-.13.08-.24c0-.1.08-.22.11-.32s.15-.45.22-.68.14-.45.2-.68.2-.72.29-1.08.17-.73.25-1.1l.08-.37v0l.1-.55c0-.26.09-.52.13-.8l.08-.57c.07-.54.13-1.08.17-1.63,0-.2,0-.41,0-.62s0-.41,0-.62,0-.42,0-.62,0-.5,0-.76v-.1C3801.53,3495.88,3801.53,3495.6,3801.52,3495.34Z" transform="translate(-3674.53 -3401.33)"/><path class="cls-1" d="M3861.72,3495.25c0-.3,0-.61,0-.92,0-.58,0-1.16,0-1.73,0,0,0-.07,0-.1,0-.5,0-1-.07-1.5a1.44,1.44,0,0,0,0-.15c0-.11,0-.22,0-.33,0-.56-.07-1.12-.12-1.67s-.1-1.21-.16-1.81l-.14-1.35a92.36,92.36,0,0,0-183-4c-.19,1.18-.36,2.37-.49,3.57-.07.6-.14,1.2-.19,1.8s-.12,1.2-.16,1.81c0,.24,0,.48-.05.73s0,.63-.06.94c0,.12,0,.22,0,.33a1.51,1.51,0,0,0,0,.15c0,.5-.05,1-.07,1.5,0,0,0,.07,0,.1,0,.58,0,1.15,0,1.73,0,.31,0,.61,0,.92s0,.62,0,.92h0c0,.61,0,1.23,0,1.84s0,1.16,0,1.73a.79.79,0,0,0,0,.11c0,.55,0,1.09.08,1.64,0,.11,0,.22,0,.33,0,.56.07,1.12.12,1.67s.1,1.21.16,1.81.13,1.2.19,1.8.15,1.2.23,1.79.17,1.19.26,1.78a92.35,92.35,0,0,0,182.41,0c.19-1.18.36-2.37.49-3.57.07-.6.14-1.2.2-1.8s.11-1.2.16-1.81.08-1.11.12-1.67c0-.12,0-.22,0-.33,0-.55.06-1.09.08-1.64a.79.79,0,0,0,0-.11c0-.58,0-1.15,0-1.73s0-1.23,0-1.84h0C3861.72,3495.87,3861.72,3495.56,3861.72,3495.25Z" transform="translate(-3674.53 -3401.33)"/><line class="cls-1" x1="110.03" y1="105.33" x2="110.02" y2="105.33"/><line class="cls-1" x1="71.6" y1="105.33" x2="71.59" y2="105.33"/><line class="cls-1" x1="21.01" y1="39.38" x2="72.16" y2="75.77"/><line class="cls-1" x1="170.59" y1="39.38" x2="119.44" y2="75.77"/><line class="cls-1" x1="94.85" y1="127.01" x2="94.85" y2="187.2"/></svg>