<svg id="图层_1" data-name="图层 1" xmlns="http://www.w3.org/2000/svg" viewBox="0 0 192.56 192.57"><defs><style>.cls-1,.cls-3{fill:none;}.cls-1{stroke:#41c4ff;}.cls-1,.cls-2,.cls-3,.cls-4{stroke-miterlimit:10;stroke-width:5px;}.cls-2,.cls-4{fill:#10ddf5;}.cls-2{stroke:#10ddf5;}.cls-3,.cls-4{stroke:#fff;}</style></defs><title>6</title><path class="cls-1" d="M4042.85,3437.61l0-.64c0-.21,0-.42,0-.62s0-.42,0-.62,0-.4-.06-.6,0-.48-.08-.71l0-.34-.09-.58c0-.27-.08-.54-.13-.81l-.11-.58h0c0-.11,0-.24-.07-.36-.07-.34-.15-.69-.23-1l0-.16c-.09-.34-.17-.68-.27-1s-.12-.43-.19-.65-.18-.6-.28-.89l0-.08-.21-.6-.18-.48,0-.11,0-.06c-.12-.3-.24-.6-.37-.9l-.13-.3c-.16-.39-.34-.77-.53-1.15v0c-.18-.39-.38-.77-.58-1.15s-.41-.76-.63-1.13-.43-.74-.67-1.1a6.34,6.34,0,0,0-.35-.54,5.88,5.88,0,0,0-.36-.53c-.23-.35-.49-.7-.75-1a32.64,32.64,0,0,0-51.47-.83c-.23.27-.44.55-.65.83s-.34.49-.52.74-.37.52-.55.79-.39.59-.58.9-.51.85-.76,1.28c-.07.12-.15.24-.22.37q-.38.71-.75,1.45c-.16.34-.32.69-.48,1-.06.13-.11.28-.18.41l-.37.9a.08.08,0,0,1,0,.06l0,.11-.18.48-.21.6c-.06.21-.13.41-.21.62l-.19.62c-.26.84-.47,1.7-.65,2.57l-.13.65c-.06.29-.11.57-.15.86s0,.31-.07.47-.09.58-.12.88-.08.75-.11,1.14c0,.21,0,.42,0,.62s0,.41,0,.62l0,.64c0,.27,0,.55,0,.82v.11c0,.26,0,.51,0,.77s0,.42,0,.63,0,.43,0,.63,0,.42,0,.62c.06.68.14,1.36.23,2,0,.16,0,.31.07.47s.09.58.15.86.08.43.13.65.14.67.23,1,.16.62.24.94.24.84.38,1.26c.08.24.16.48.24.71l.09.24,0,.13c.09.26.19.51.28.77s.24.62.38.92l0,.06c.07.16.13.32.21.48l0,0c.13.29.26.58.4.87v0c.16.32.31.64.48.94l.11.21h0c.21.38.41.76.63,1.13s.45.74.67,1.1l.15.22.46.69.11.16.23.32c.17.24.34.49.51.72a32.65,32.65,0,0,0,52.11,0h0c.26-.34.51-.69.75-1l.7-1,0,0c.23-.36.45-.73.67-1.1s.43-.75.63-1.13.4-.77.58-1.16v0c.14-.3.28-.6.42-.91l.06-.15a2.86,2.86,0,0,0,.15-.33l0-.06c.13-.31.26-.61.38-.92s.19-.5.28-.77l0-.13.09-.24c0-.11.08-.22.11-.33s.16-.46.22-.69.14-.45.21-.69.21-.73.29-1.09.18-.75.26-1.11l.08-.38v0l.11-.55c0-.26.09-.53.13-.81l.09-.58c.07-.55.13-1.1.18-1.65,0-.21,0-.42,0-.62s0-.42,0-.63,0-.43,0-.63,0-.51,0-.77v-.11C4042.87,3438.16,4042.86,3437.88,4042.85,3437.61Z" transform="translate(-3913.93 -3342.18)"/><path class="cls-2" d="M4104,3437.52c0-.31,0-.62,0-.93,0-.59,0-1.18,0-1.76,0,0,0-.07,0-.11,0-.51,0-1-.07-1.52a1.46,1.46,0,0,0,0-.15c0-.11,0-.22,0-.34,0-.56-.07-1.13-.12-1.7s-.1-1.23-.16-1.83l-.14-1.37a93.79,93.79,0,0,0-185.81-4.08c-.19,1.2-.36,2.41-.5,3.63-.07.61-.14,1.22-.2,1.83s-.12,1.22-.16,1.83c0,.24,0,.49-.05.74s0,.64-.06,1c0,.12,0,.23,0,.34a1.53,1.53,0,0,0,0,.15c0,.51-.05,1-.07,1.52,0,0,0,.07,0,.11,0,.58,0,1.17,0,1.76,0,.31,0,.62,0,.93s0,.63,0,.94h0c0,.62,0,1.24,0,1.87s0,1.18,0,1.76a.8.8,0,0,0,0,.11c0,.56,0,1.11.08,1.67,0,.11,0,.22,0,.34,0,.56.07,1.13.12,1.7s.11,1.23.16,1.84.13,1.22.2,1.83.15,1.22.23,1.82.17,1.21.27,1.81a93.79,93.79,0,0,0,185.25,0c.19-1.2.36-2.41.5-3.63.07-.61.14-1.22.2-1.83s.11-1.22.16-1.84.08-1.13.12-1.7c0-.12,0-.23,0-.34,0-.56.06-1.11.08-1.67a.8.8,0,0,0,0-.11c0-.58,0-1.17,0-1.76s0-1.24,0-1.87h0C4104,3438.15,4104,3437.83,4104,3437.52Z" transform="translate(-3913.93 -3342.18)"/><line class="cls-1" x1="111.7" y1="106.93" x2="111.7" y2="106.93"/><line class="cls-1" x1="72.67" y1="106.93" x2="72.66" y2="106.93"/><line class="cls-3" x1="21.3" y1="39.95" x2="73.25" y2="76.91"/><line class="cls-3" x1="173.21" y1="39.95" x2="121.26" y2="76.91"/><line class="cls-3" x1="96.28" y1="128.95" x2="96.28" y2="190.07"/><path class="cls-4" d="M4042.85,3437.61l0-.64c0-.21,0-.42,0-.62s0-.42,0-.62,0-.4-.06-.6,0-.48-.08-.71l0-.34-.09-.58c0-.27-.08-.54-.13-.81l-.11-.58h0c0-.11,0-.24-.07-.36-.07-.34-.15-.69-.23-1l0-.16c-.09-.34-.17-.68-.27-1s-.12-.43-.19-.65-.18-.6-.28-.89l0-.08-.21-.6-.18-.48,0-.11,0-.06c-.12-.3-.24-.6-.37-.9l-.13-.3c-.16-.39-.34-.77-.53-1.15v0c-.18-.39-.38-.77-.58-1.15s-.41-.76-.63-1.13-.43-.74-.67-1.1a6.34,6.34,0,0,0-.35-.54,5.88,5.88,0,0,0-.36-.53c-.23-.35-.49-.7-.75-1a32.64,32.64,0,0,0-51.47-.83c-.23.27-.44.55-.65.83s-.34.49-.52.74-.37.52-.55.79-.39.59-.58.9-.51.85-.76,1.28c-.07.12-.15.24-.22.37q-.38.71-.75,1.45c-.16.34-.32.69-.48,1-.06.13-.11.28-.18.41l-.37.9a.08.08,0,0,1,0,.06l0,.11-.18.48-.21.6c-.06.21-.13.41-.21.62l-.19.62c-.26.84-.47,1.7-.65,2.57l-.13.65c-.06.29-.11.57-.15.86s0,.31-.07.47-.09.58-.12.88-.08.75-.11,1.14c0,.21,0,.42,0,.62s0,.41,0,.62l0,.64c0,.27,0,.55,0,.82v.11c0,.26,0,.51,0,.77s0,.42,0,.63,0,.43,0,.63,0,.42,0,.62c.06.68.14,1.36.23,2,0,.16,0,.31.07.47s.09.58.15.86.08.43.13.65.14.67.23,1,.16.62.24.94.24.84.38,1.26c.08.24.16.48.24.71l.09.24,0,.13c.09.26.19.51.28.77s.24.62.38.92l0,.06c.07.16.13.32.21.48l0,0c.13.29.26.58.4.87v0c.16.32.31.64.48.94l.11.21h0c.21.38.41.76.63,1.13s.45.74.67,1.1l.15.22.46.69.11.16.23.32c.17.24.34.49.51.72a32.65,32.65,0,0,0,52.11,0h0c.26-.34.51-.69.75-1l.7-1,0,0c.23-.36.45-.73.67-1.1s.43-.75.63-1.13.4-.77.58-1.16v0c.14-.3.28-.6.42-.91l.06-.15a2.86,2.86,0,0,0,.15-.33l0-.06c.13-.31.26-.61.38-.92s.19-.5.28-.77l0-.13.09-.24c0-.11.08-.22.11-.33s.16-.46.22-.69.14-.45.21-.69.21-.73.29-1.09.18-.75.26-1.11l.08-.38v0l.11-.55c0-.26.09-.53.13-.81l.09-.58c.07-.55.13-1.1.18-1.65,0-.21,0-.42,0-.62s0-.42,0-.63,0-.43,0-.63,0-.51,0-.77v-.11C4042.87,3438.16,4042.86,3437.88,4042.85,3437.61Z" transform="translate(-3913.93 -3342.18)"/></svg>