<svg id="图层_1" data-name="图层 1" xmlns="http://www.w3.org/2000/svg" viewBox="0 0 232.66 198.18"><defs><style>.cls-1{fill:none;stroke:#41c4ff;stroke-miterlimit:10;stroke-width:5px;}</style></defs><title>3</title><path class="cls-1" d="M889.4,2549a79.93,79.93,0,0,0-43.55,11.93A79.93,79.93,0,0,0,802.3,2549c-38.61.43-70,27.14-70.28,59.77-.28,33.45,73.63,133.4,113.14,133.4h1.37c39.52,0,113.42-100,113.14-133.4C959.41,2576.14,928,2549.44,889.4,2549Z" transform="translate(-729.52 -2546.5)"/><polyline class="cls-1" points="19.47 106.04 52.4 106.04 66.17 46.57 88.74 153.17 113.77 70.72 132 116.73 152.66 50.91 170.65 106.02 213.57 105.4"/></svg>