<?xml version="1.0" standalone="no"?><!DOCTYPE svg PUBLIC "-//W3C//DTD SVG 1.1//EN" "http://www.w3.org/Graphics/SVG/1.1/DTD/svg11.dtd"><svg t="1552312181897" class="icon" style="" viewBox="0 0 1024 1024" version="1.1" xmlns="http://www.w3.org/2000/svg" p-id="2394" xmlns:xlink="http://www.w3.org/1999/xlink" width="200" height="200"><defs><style type="text/css"></style></defs><path d="M510.887666 512m-446.708971 0a446.708971 446.708971 0 1 0 893.417942 0 446.708971 446.708971 0 1 0-893.417942 0Z" fill="#FFFFFF" p-id="2395" data-spm-anchor-id="a313x.7781069.0.i20" class=""></path><path d="M510.87948 578.902736c-123.673717 0-224.282113-100.607372-224.282113-224.282113s100.607372-224.282113 224.282113-224.282113 224.282113 100.607372 224.282112 224.282113-100.608396 224.282113-224.282112 224.282113z m0-364.80559c-77.486792 0-140.523477 63.036685-140.523477 140.523477s63.036685 140.523477 140.523477 140.523477 140.523477-63.036685 140.523477-140.523477-63.036685-140.523477-140.523477-140.523477z" fill="#e6e6e6" p-id="2396" data-spm-anchor-id="a313x.7781069.0.i21" class="selected"></path><path d="M510.87948 896.635217c-23.12058 0-41.878806-18.744923-41.878806-41.878806V537.02393c0-23.133883 18.758226-41.878806 41.878806-41.878806s41.878806 18.744923 41.878806 41.878806v317.732481c0 23.133883-18.758226 41.878806-41.878806 41.878806z" fill="#e6e6e6" p-id="2397" data-spm-anchor-id="a313x.7781069.0.i19" class="selected"></path><path d="M669.752884 737.762837H352.033705c-23.12058 0-41.878806-18.744923-41.878806-41.878806s18.758226-41.878806 41.878806-41.878807h317.719179c23.12058 0 41.878806 18.744923 41.878806 41.878807s-18.758226 41.878806-41.878806 41.878806z" fill="#e6e6e6" p-id="2398" data-spm-anchor-id="a313x.7781069.0.i18" class="selected"></path></svg>